<mxfile host="app.diagrams.net" modified="2023-09-13T18:01:42.065Z" agent="Mozilla/5.0 (Windows NT 10.0; Win64; x64) AppleWebKit/537.36 (KHTML, like Gecko) Chrome/116.0.0.0 Safari/537.36" version="21.7.5" etag="6c3Nr-Y1Gx1opsYflE2r" type="github">
  <diagram name="Page-1" id="3OWNZm9HM_LRzOJ4HL0N">
    <mxGraphModel>
      <root>
        <mxCell id="0" />
        <mxCell id="1" parent="0" />
      </root>
    </mxGraphModel>
  </diagram>
</mxfile>
